<svg width="115" height="30" viewBox="0 0 115 30" fill="none" xmlns="http://www.w3.org/2000/svg">
<path d="M65.4137 6.88945C65.7864 8.70002 64.5138 10.2772 62.631 10.3086C60.9699 10.3352 59.3075 10.3122 57.6452 10.3159C56.5491 10.3183 55.7649 11.0137 55.7356 11.9994C55.7076 12.9622 56.481 13.7447 57.5673 13.7774C58.7011 13.8112 59.8373 13.7834 60.9723 13.7882C63.945 13.8003 66.226 16.0512 66.2236 18.9672C66.2212 21.8626 63.9048 24.1509 60.9626 24.1558C58.6109 24.1594 56.2605 24.1558 53.9089 24.1558H53.3256C52.8409 22.5194 54.1853 20.7584 55.9609 20.7088C57.5612 20.6641 59.1626 20.6955 60.7641 20.6919C61.9234 20.6895 62.7491 19.9589 62.7394 18.949C62.7296 17.9585 61.9259 17.2485 60.7896 17.2364C59.5341 17.2231 58.2748 17.2667 57.0217 17.1941C54.3753 17.0429 52.2356 14.7038 52.2344 12.0285C52.2319 9.35676 54.4374 6.94266 57.0996 6.86405C59.8129 6.78422 62.5311 6.84591 65.2469 6.84712C65.3041 6.84712 65.3602 6.87493 65.4125 6.88945H65.4137Z" fill="white"/>
<path d="M114.038 18.8824H103.986C104.41 20.1451 105.986 21.1127 107.441 21.0292C107.801 21.0086 108.2 20.9905 108.505 20.8296C109.12 20.5055 109.649 20.6579 110.221 20.9095C110.959 21.2336 111.72 21.5106 112.475 21.8105C110.904 24.1847 106.754 24.8801 103.885 23.2667C100.733 21.4948 99.4898 17.5967 101.041 14.3469C102.601 11.0765 106.459 9.56105 109.867 10.8782C113.105 12.13 114.91 15.5866 114.038 18.8824ZM110.665 15.716C110.268 14.3844 108.695 13.4628 107.042 13.5644C105.657 13.649 104.195 14.688 104.016 15.716H110.665Z" fill="white"/>
<path d="M93.3131 15.3677C93.7223 14.9045 94.1144 14.4243 94.5456 13.9841C95.3786 13.1326 96.2274 12.2993 97.0835 11.4708C97.2321 11.3269 97.4452 11.1576 97.6303 11.1539C98.9858 11.1273 100.342 11.1394 101.722 11.1394C99.5545 13.2874 97.4184 15.404 95.1861 17.6149C97.4477 19.8524 99.5886 21.9714 101.797 24.1557C100.375 24.1557 99.0247 24.1678 97.6754 24.1412C97.4903 24.1375 97.2784 23.9658 97.1298 23.8207C95.9595 22.6789 94.8037 21.5239 93.6407 20.3737C93.5019 20.237 93.3533 20.1088 93.1073 19.8839V24.1097H89.9531V5.9375H93.0537V15.1984C93.139 15.254 93.2254 15.3109 93.3107 15.3665L93.3131 15.3677Z" fill="white"/>
<path d="M75.4669 24.0441C74.1188 24.0441 72.8255 24.1953 71.5845 24.0091C69.7431 23.7309 68.3146 21.9058 68.3024 20.0287C68.2781 16.3314 68.2915 12.634 68.3073 8.93547C68.3073 8.76252 68.4437 8.47225 68.5752 8.43475C69.4874 8.17351 70.4142 7.96427 71.4201 7.71875V12.7018C71.9535 12.7018 72.4175 12.6679 72.873 12.7187C73.0532 12.738 73.3187 12.9122 73.365 13.0682C73.6268 13.9487 73.835 14.8461 74.0823 15.821H71.4627C71.4627 17.2711 71.4201 18.6511 71.481 20.0275C71.509 20.6649 72.0168 21.0156 72.7122 21.0459C73.2383 21.0688 73.7668 21.0386 74.2929 21.0616C74.45 21.0688 74.7131 21.1438 74.7399 21.2394C75.0066 22.1779 75.2343 23.1274 75.4657 24.0441H75.4669Z" fill="white"/>
<path d="M79.6975 24.1315H76.5859V11.1309H79.6622C79.6853 11.4163 79.7072 11.686 79.7219 11.8663C80.6425 11.5131 81.5474 11.1442 82.4693 10.8237C82.7591 10.7233 83.0952 10.7511 83.4582 10.7148V13.805C83.1354 13.8643 82.8164 13.9018 82.5082 13.9816C80.8751 14.4025 79.7109 15.9095 79.6999 17.639C79.6878 19.5681 79.6975 21.4972 79.6975 23.4263C79.6975 23.644 79.6975 23.8605 79.6975 24.1315Z" fill="white"/>
<path d="M88.0667 11.168V24.1141H84.9844V11.168H88.0667Z" fill="white"/>
<path d="M84.9707 8.98796V5.93164H88.053V8.98796H84.9707Z" fill="white"/>
<path d="M23.5395 18.2321C21.524 20.0887 18.7461 20.7164 15.9914 20.7889C12.3647 20.8845 8.73435 20.8288 5.10521 20.8397C4.88357 20.8397 4.65827 20.8446 4.44028 20.8772C3.90443 20.9595 3.60972 21.2788 3.60485 21.8194C3.59997 22.3262 3.99212 22.6999 4.54988 22.7205C5.0565 22.7398 5.56312 22.7229 6.07095 22.7265C6.78947 22.7301 7.21084 23.0482 7.23033 23.5985C7.24981 24.1513 6.78704 24.5165 6.05025 24.5177C4.4281 24.5201 2.80595 24.5153 1.1838 24.5201C0.438486 24.5226 0.00615634 24.8636 6.71869e-05 25.4357C-0.00602197 26.032 0.401951 26.3658 1.15579 26.3694C1.96686 26.373 2.77794 26.3573 3.58901 26.3755C4.20889 26.3888 4.58764 26.7528 4.58764 27.2838C4.58764 27.8087 4.19671 28.1522 3.5744 28.163C3.10797 28.1703 2.64154 28.157 2.17511 28.1667C1.498 28.1812 1.06445 28.5549 1.06445 29.1101C1.06445 29.4209 1.20937 29.6809 1.46025 29.8478C1.621 29.9543 1.81585 30.0002 2.00949 30.0002H3.86181C3.86181 30.0002 3.8679 30.0002 3.87155 30.0002H3.85937C9.29699 29.1621 14.0952 26.9451 18.2432 23.3494C19.0956 22.6104 19.8982 21.8109 20.7117 21.0284C21.8041 19.9786 22.8843 18.9143 23.9718 17.8584C23.777 18.0193 23.5992 18.1777 23.5383 18.2333L23.5395 18.2321ZM8.36291 28.1207C7.62003 28.1703 6.86863 28.1739 6.12575 28.1207C5.6301 28.0856 5.33051 27.7397 5.3159 27.2281C5.3025 26.7637 5.70195 26.3827 6.21587 26.3561C6.57757 26.338 6.9417 26.3525 7.30583 26.3525C7.62856 26.3525 7.9525 26.338 8.27401 26.3561C8.78915 26.3851 9.19225 26.7661 9.17399 27.2269C9.15328 27.7313 8.86709 28.0869 8.36291 28.1207ZM8.52245 24.5177C8.0414 24.5226 7.63221 24.1271 7.62125 23.6457C7.60907 23.1438 8.03775 22.7132 8.53706 22.7277C9.00471 22.741 9.42729 23.1704 9.42364 23.6288C9.4212 24.0884 8.99009 24.5129 8.52245 24.5177Z" fill="#F69520"/>
<path d="M18.2432 23.3485C14.0952 26.9443 9.29699 29.16 3.85938 29.9994H3.87155C9.15816 29.9994 14.4435 30.0018 19.7301 29.9946C20.1527 29.9946 20.5753 29.9329 20.9967 29.893C24.0193 29.6136 26.7765 28.5867 29.3254 26.9781C31.263 25.7554 32.795 24.0948 34.3392 22.4439C37.0258 19.5714 39.7269 16.7134 42.4293 13.8566C42.7873 13.4781 42.9006 13.0548 42.724 12.5867C42.5401 12.0957 42.1114 11.8937 41.6121 11.8985C38.9804 11.9215 36.345 11.8949 33.7169 12.011C31.3154 12.1162 29.1574 13.0209 27.3927 14.6222C26.2297 15.6769 25.0971 16.7642 23.9706 17.8588C22.8843 18.9146 21.8041 19.979 20.7105 21.0288C19.8958 21.8113 19.0944 22.6096 18.242 23.3497L18.2432 23.3485Z" fill="#5565AF"/>
<path d="M51.3747 0.707897C51.3467 0.642586 51.2943 0.578484 51.2285 0.521639C51.0787 0.392227 50.8827 0.328125 50.6829 0.328125H46.4266C46.4266 0.328125 46.423 0.328125 46.4218 0.328125C46.619 0.328125 46.8151 0.328125 47.0124 0.328125H47.0246C41.587 1.16629 36.7887 3.38324 32.6408 6.97898C31.7883 7.71796 30.9858 8.51742 30.1722 9.29994C29.271 10.1659 28.3772 11.0416 27.4821 11.9148C27.2921 12.0999 27.1033 12.2849 26.9121 12.47C27.107 12.3091 27.2848 12.1507 27.3457 12.095C27.4796 11.9717 27.6185 11.8531 27.7597 11.7394C29.0348 10.7162 30.568 10.1248 32.1865 9.81639C33.6175 9.44871 35.0996 9.28422 36.6304 9.30116C38.1429 9.31809 39.664 9.41726 41.1656 9.1282C42.56 8.8597 43.857 8.37712 45.02 7.64298C45.0395 7.62967 45.0602 7.61516 45.0797 7.60065C45.4036 7.37568 45.7178 7.13016 46.0187 6.85561C46.3925 6.51454 46.7579 6.1638 47.1184 5.80822C47.7309 5.20469 48.3277 4.58545 48.9171 3.95773C49.6929 3.13167 50.4589 2.29351 51.2358 1.46865C51.3917 1.30295 51.4624 0.911088 51.3747 0.707897Z" fill="#262262"/>
<path d="M47.0126 0.327381C46.8153 0.327381 46.6192 0.327381 46.4219 0.327381C41.3326 0.327381 36.2433 0.324962 31.154 0.332219C30.7314 0.332219 30.3088 0.393902 29.8875 0.433814C26.8648 0.713201 24.1076 1.74004 21.5587 3.34863C19.6211 4.5714 18.0891 6.23199 16.5449 7.88292C13.8584 10.7554 11.1572 13.6134 8.45485 16.4701C8.09681 16.8487 7.98355 17.272 8.16013 17.7401C8.34403 18.2311 8.7727 18.4331 9.27201 18.4283C11.9037 18.4053 14.5391 18.4319 17.1672 18.3158C19.5688 18.2105 21.7268 17.3059 23.4914 15.7045C24.6544 14.6499 25.787 13.5626 26.9135 12.468C27.1035 12.283 27.2935 12.0979 27.4835 11.9129C28.3786 11.0396 29.2724 10.164 30.1736 9.29799C30.9884 8.51547 31.7897 7.71722 32.6422 6.97703C36.7901 3.38128 41.5884 1.16554 47.026 0.326172H47.0138L47.0126 0.327381Z" fill="#5565AF"/>
</svg>
